<svg width="24" height="24" viewBox="0 0 24 24" fill="none" xmlns="http://www.w3.org/2000/svg"><path fill-rule="evenodd" clip-rule="evenodd" d="M18.5 19V10C18.5 9.84262 18.4259 9.69443 18.3 9.6L12.3 5.1C12.1222 4.96667 11.8778 4.96667 11.7 5.1L5.7 9.6C5.5741 9.69443 5.5 9.84262 5.5 10V19C5.5 19.2761 5.72386 19.5 6 19.5H10V15C10 14.4477 10.4477 14 11 14H13C13.5523 14 14 14.4477 14 15V19.5H18C18.2761 19.5 18.5 19.2761 18.5 19ZM4.8 8.4C4.29639 8.77771 4 9.37049 4 10V19C4 20.5081 5.37669 21.5 6.49998 21.5H18.5C19.6045 21.5 20.5 20.6046 20.5 19.5V10.5C20.5 9.8705 20.2036 9.27772 19.7 8.90001L19.6397 8.85478C19.5196 8.68286 19.3719 8.52891 19.2 8.4L13.2 3.9C12.4889 3.36667 11.5111 3.36667 10.8 3.9L4.8 8.4Z" fill="#2C3034"></path><path d="M18.5 10V19C18.5 19.2761 18.2761 19.5 18 19.5H14V15C14 14.4477 13.5523 14 13 14H11C10.4477 14 10 14.4477 10 15V19.5H6C5.72386 19.5 5.5 19.2761 5.5 19V10C5.5 9.84262 5.5741 9.69443 5.7 9.6L11.7 5.1C11.8778 4.96667 12.1222 4.96667 12.3 5.1L18.3 9.6C18.4259 9.69443 18.5 9.84262 18.5 10Z" fill="#FDBF1E"></path></svg>