<svg width="24" height="24" viewBox="0 0 24 24" fill="none" xmlns="http://www.w3.org/2000/svg"><path d="M12 7.99344L13.0735 9.83646L13.5055 9.58481L13.0735 9.83646C13.2148 10.0791 13.4515 10.2511 13.7259 10.3105L15.8105 10.7619L14.3894 12.3524C14.2023 12.5617 14.1119 12.8401 14.1401 13.1194L14.355 15.2414L12.4032 14.3813C12.1463 14.2681 11.8537 14.2681 11.5968 14.3813L9.64501 15.2414L9.85986 13.1194C9.88814 12.8401 9.7977 12.5617 9.61063 12.3524L8.18954 10.7619L10.2741 10.3105C10.5485 10.2511 10.7852 10.0791 10.9265 9.83646L12 7.99344Z" fill="#6B6661" stroke="#6B6661"></path><g filter="url(#filter0_d_5141_156902)"><circle cx="12" cy="12" r="9.25" stroke="#6B6661" stroke-width="1.5" shape-rendering="crispEdges"></circle></g><defs><filter id="filter0_d_5141_156902" x="2" y="2" width="20.5" height="20.5" filterUnits="userSpaceOnUse" color-interpolation-filters="sRGB"><feFlood flood-opacity="0" result="BackgroundImageFix"></feFlood><feColorMatrix in="SourceAlpha" type="matrix" values="0 0 0 0 0 0 0 0 0 0 0 0 0 0 0 0 0 0 127 0" result="hardAlpha"></feColorMatrix><feOffset dx="0.5" dy="0.5"></feOffset><feComposite in2="hardAlpha" operator="out"></feComposite><feColorMatrix type="matrix" values="0 0 0 0 0.419608 0 0 0 0 0.4 0 0 0 0 0.380392 0 0 0 1 0"></feColorMatrix><feBlend mode="normal" in2="BackgroundImageFix" result="effect1_dropShadow_5141_156902"></feBlend><feBlend mode="normal" in="SourceGraphic" in2="effect1_dropShadow_5141_156902" result="shape"></feBlend></filter></defs></svg>